<svg width = "30px" height = "30px" fill="#008000" viewBox="0 0 52 52" data-name="Layer 1" xmlns="http://www.w3.org/2000/svg" stroke="#008000" stroke-width="0.0005200000000000001"><g id="SVGRepo_bgCarrier" stroke-width="0"></g><g id="SVGRepo_tracerCarrier" stroke-linecap="round" stroke-linejoin="round"></g><g id="SVGRepo_iconCarrier"><path d="M39.55,26A10.5,10.5,0,1,0,50,36.5,10.5,10.5,0,0,0,39.55,26Zm0,16.14a5.65,5.65,0,1,1,5.6-5.64,5.64,5.64,0,0,1-5.6,5.64ZM23,15.5a10.48,10.48,0,1,0-3.07,7.43A10.5,10.5,0,0,0,23,15.5Zm-10.5,5.64a5.65,5.65,0,1,1,4-1.65A5.63,5.63,0,0,1,12.49,21.14Zm26.71-15A.8.8,0,0,0,38.49,5h-3a.83.83,0,0,0-.64.4h0l-22,40.41h0a.78.78,0,0,0,0,.78.79.79,0,0,0,.68.39h3a.8.8,0,0,0,.64-.4h0l22-40.41Z"></path></g></svg>